# xmcd
#
# Track frame offsets: 
#        150
#        19902
#        37385
#        58629
#        92833
#        113648
#        129919
#        146516
#        163088
#        188251
#        204861
#        224462
#        246121
#        263501
#        281458
#        304365
#        320285
#
# Disc length: 4784 seconds
#
# Revision: 1
# Processed by: cddbd v1.5.2PL0 Copyright (c) Steve Scherf et al.
# Submitted via: ExactAudioCopy v1.3
#
DISCID=ee12ae11
DTITLE=Various Artist - Akella Presents - vol.62 - Various Styles Of 
DTITLE=Blues  CD1
DYEAR=2015
DGENRE=Blues
TTITLE0=Randall Bramblett - Dead In The Water
TTITLE1=Red Rooster - Little Darling
TTITLE2=Dave Sadler - Killing Game
TTITLE3=Patrick Woolam - Too Real To Be Dreaming
TTITLE4=Ana and Milton Popovic - I'm Losing You
TTITLE5=Joe Valeriano - A Song
TTITLE6=Terry Davidson and the Gears - Nasty Girl
TTITLE7=Ironing Board Sam - Hold On
TTITLE8=David Lindley and Wally Ingram - Meatgrinder Blues
TTITLE9=Nine Below Zero - So Cold
TTITLE10=Peter Karp - Rolling on a Log
TTITLE11=John Ginty and Cris Jacobs - Ball Of Fire
TTITLE12=Voodoo Blue - When Is It Time
TTITLE13=West Water Outlaws - Rising Sun
TTITLE14=Scott Keeton - Nothing Left To Say
TTITLE15=SwampDaWamp - Miss Becky
TTITLE16=Hogjaw - I Will Remain
EXTD=
EXTT0=
EXTT1=
EXTT2=
EXTT3=
EXTT4=
EXTT5=
EXTT6=
EXTT7=
EXTT8=
EXTT9=
EXTT10=
EXTT11=
EXTT12=
EXTT13=
EXTT14=
EXTT15=
EXTT16=
PLAYORDER=
